:version 1.10
:name ASF
:units
  mass 1
  length 1
  angle deg
:documentation
  ASF file generated by Kaydara
:root
  axis xyz
  order  tx ty tz rx ry rz
  position 0 0 0
  orientation 0 0 0
:bonedata
  begin
    id 1
    name RightUpLegDummy
    direction -0.718183 -0.695806 0.00816078
    length 4.904
    axis 0 0 0 xyz
  end
  begin
    id 2
    name RightUpLeg
    direction -0.0736652 -0.994202 0.0783343
    length 17.4976
    axis -2.72909 -3.00389 -4.00133 xyz
    dof rx ry rz
  end
  begin
    id 3
    name RightLeg
    direction -0.0389037 -0.994596 -0.0962598
    length 16.5821
    axis 3.95836 -18.5909 -4.46993 xyz
    dof rx ry rz
  end
  begin
    id 4
    name RightFoot
    direction -0.311643 -0.412678 0.855906
    length 3.77069
    axis -1.99483 -18.8351 -3.27644 xyz
    dof rx ry rz
  end
  begin
    id 5
    name RightToes
    direction -0.317852 0.0389852 0.947339
    length 3.85082
    axis -2.00228 -18.1713 -3.25211 xyz
    dof rx ry rz
  end
  begin
    id 6
    name SpineDummy
    direction 8.3039e-015 1 4.44677e-016
    length 4.6813
    axis 0 0 0 xyz
  end
  begin
    id 7
    name Spine
    direction -0.000262373 0.999988 0.00493267
    length 10.1015
    axis -0.00246081 0.00062579 0.0150362 xyz
    dof rx ry rz
  end
  begin
    id 8
    name Spine1
    direction 0 0 0
    length 0
    axis -0.00349562 0.000650293 0.0196666 xyz
    dof rx ry rz
  end
  begin
    id 9
    name HEadDummy
    direction -0.000343232 0.999999 0.00123745
    length 3.43865
    axis -0.00349562 0.000650293 0.0196666 xyz
  end
  begin
    id 10
    name HEad
    direction -0.0461221 0.980933 0.188796
    length 5.12695
    axis -0.00351404 -7.04812 0.0199272 xyz
    dof rx ry rz
  end
  begin
    id 11
    name LeftShoulder1Dummy
    direction 0.998904 -0.0399089 -0.0244534
    length 3.5433
    axis -0.00349562 0.000650293 0.0196666 xyz
  end
  begin
    id 12
    name LeftShoulder1
    direction 0.99951 1.64443e-005 0.0312999
    length 4.05031
    axis -0.00349562 0.000650293 0.0196666 xyz
    dof rx ry rz
  end
  begin
    id 13
    name LeftArm
    direction 0.984791 0.0515299 0.165927
    length 12.9126
    axis -64.823 -10.7743 5.20463 xyz
    dof rx ry rz
  end
  begin
    id 14
    name LeftForeArm
    direction 0.984968 0.0534808 0.16425
    length 10.8596
    axis -30.0462 -7.70601 1.87451 xyz
    dof rx ry rz
  end
  begin
    id 15
    name LeftHand
    direction 0.975871 0.0289682 0.216418
    length 6.62295
    axis -20.1348 -6.98077 1.86072 xyz
    dof rx ry rz
  end
  begin
    id 16
    name RightShoulderDummy
    direction -0.998877 -0.0405946 -0.0244307
    length 3.5433
    axis -0.00349562 0.000650293 0.0196666 xyz
  end
  begin
    id 17
    name RightShoulder
    direction -0.998933 -0.0249743 -0.0388558
    length 4.05031
    axis -0.0205316 -4.02113 1.41395 xyz
    dof rx ry rz
  end
  begin
    id 18
    name RightArm
    direction -0.997559 0.068664 0.0127103
    length 12.9638
    axis -67.3882 1.84188 -6.15987 xyz
    dof rx ry rz
  end
  begin
    id 19
    name RightForeArm
    direction -0.991508 0.0912848 0.0926241
    length 10.8312
    axis -22.1975 3.41087 -4.28711 xyz
    dof rx ry rz
  end
  begin
    id 20
    name RightHand
    direction -0.989262 0.0600788 0.133232
    length 6.57864
    axis -12.2911 2.17515 -4.39675 xyz
    dof rx ry rz
  end
  begin
    id 21
    name LeftUpLegDummy
    direction 0.718183 -0.695806 0.00816078
    length 4.904
    axis 0 0 0 xyz
  end
  begin
    id 22
    name LeftUpLeg
    direction 0.0831398 -0.99469 0.0606531
    length 17.4976
    axis -1.71016 2.29552 4.63832 xyz
    dof rx ry rz
  end
  begin
    id 23
    name LeftLeg
    direction 0.0498442 -0.991778 -0.117862
    length 16.5821
    axis 5.13757 15.5727 5.13348 xyz
    dof rx ry rz
  end
  begin
    id 24
    name LeftFoot
    direction 0.269026 -0.433896 0.85986
    length 3.77069
    axis -0.576502 15.6961 4.10267 xyz
    dof rx ry rz
  end
  begin
    id 25
    name LeftToes
    direction 0.277311 0.0251143 0.960452
    length 3.85048
    axis -0.576502 15.6961 4.10267 xyz
    dof rx ry rz
  end
:hierarchy
  begin
    root RightUpLegDummy SpineDummy LeftUpLegDummy
    RightUpLegDummy RightUpLeg
    RightUpLeg RightLeg
    RightLeg RightFoot
    RightFoot RightToes
    SpineDummy Spine
    Spine Spine1
    Spine1 HEadDummy LeftShoulder1Dummy RightShoulderDummy
    HEadDummy HEad
    LeftShoulder1Dummy LeftShoulder1
    LeftShoulder1 LeftArm
    LeftArm LeftForeArm
    LeftForeArm LeftHand
    RightShoulderDummy RightShoulder
    RightShoulder RightArm
    RightArm RightForeArm
    RightForeArm RightHand
    LeftUpLegDummy LeftUpLeg
    LeftUpLeg LeftLeg
    LeftLeg LeftFoot
    LeftFoot LeftToes
  end

:SAMPLES-PER-SECOND 30
:FULLY-SPECIFIED
:DEGREES
16
root  -3.83947 39.7191 105.782 -179.083 10.5287 -177.479
RightUpLeg  -2.65094 -1.09808 6.02949
RightLeg  14.6809 -10.4746 -4.12838
RightFoot  -13.501 0.0429031 1.35037
RightToes  3.97569e-016 -3.18055e-015 -2.98177e-016
Spine  3.9476 -0.365632 5.1561
Spine1  4.75685 -0.216617 2.80017
HEad  -8.47676 5.57023 -3.40023
LeftShoulder1  -3.88251e-019 9.70628e-020 -3.87848e-018
LeftArm  -27.9743 57.5988 -71.0565
LeftForeArm  2.89617 -13.0606 -2.45296
LeftHand  -0.519506 -0.840459 10.4791
RightShoulder  8.61113 11.0452 39.6786
RightArm  12.1063 -44.0096 11.4694
RightForeArm  -0.148606 17.9951 -8.00101
RightHand  -0.764734 1.2811 -13.0703
LeftUpLeg  -9.054 0.450349 0.708958
LeftLeg  23.934 6.11079 10.5227
LeftFoot  -11.0888 0.0557208 -4.77924
LeftToes  5.30048e-011 -3.04284e-011 -3.73785e-011
17
root  -3.77038 39.5015 105.493 -179.147 9.57594 -176.698
RightUpLeg  -2.49721 -1.4442 6.74338
RightLeg  16.2165 -11.0041 -4.68275
RightFoot  -14.8624 0.0694348 1.69802
RightToes  3.97569e-016 -3.18055e-015 -2.98177e-016
Spine  4.80794 -0.699574 7.62102
Spine1  4.76986 -0.194343 2.12633
HEad  -8.97091 5.44359 -3.17259
LeftShoulder1  -3.88251e-019 9.70628e-020 -3.87848e-018
LeftArm  -28.0674 57.3176 -72.2179
LeftForeArm  3.87939 -13.1214 -2.73179
LeftHand  -0.592509 -1.798 10.2828
RightShoulder  8.63957 11.0586 39.7831
RightArm  14.9385 -43.5049 11.6872
RightForeArm  -1.20094 18.8187 -8.41125
RightHand  -0.837862 1.70026 -13.5048
LeftUpLeg  -12.5935 -0.114386 1.19962
LeftLeg  30.9924 6.84414 14.1565
LeftFoot  -10.153 0.108681 -5.33795
LeftToes  5.30048e-011 -3.04284e-011 -3.73785e-011
18
root  -3.68841 39.3757 105.124 -179.062 9.05797 -176.473
RightUpLeg  -2.22452 -1.70856 6.95193
RightLeg  16.9923 -11.0746 -4.98721
RightFoot  -15.7943 0.0961196 2.10857
RightToes  3.97569e-016 -3.18055e-015 -2.98177e-016
Spine  5.02477 -0.758445 9.00385
Spine1  5.19345 -0.0439984 1.58051
HEad  -9.59626 5.44618 -3.0982
LeftShoulder1  -3.88251e-019 9.70628e-020 -3.87848e-018
LeftArm  -28.589 57.4205 -73.6107
LeftForeArm  3.83276 -13.3658 -2.95258
LeftHand  -0.623565 -1.65805 11.0398
RightShoulder  8.64993 11.0626 39.8232
RightArm  17.324 -42.5599 12.6718
RightForeArm  -2.63305 19.5106 -8.87858
RightHand  -0.758616 0.888757 -13.7688
LeftUpLeg  -16.0834 0.656225 0.828705
LeftLeg  36.7736 7.21645 17.5447
LeftFoot  -9.22624 0.127433 -4.50825
LeftToes  5.30048e-011 -3.04284e-011 -3.73785e-011
19
root  -3.58376 39.3271 104.668 -178.712 9.09911 -176.802
RightUpLeg  -2.0263 -1.89846 6.64552
RightLeg  17.2116 -10.7137 -5.13091
RightFoot  -16.3693 0.126367 2.75727
RightToes  3.97569e-016 -3.18055e-015 -2.98177e-016
Spine  4.97924 -0.506746 9.26958
Spine1  5.21657 0.22948 1.31814
HEad  -9.97768 5.5131 -3.34818
LeftShoulder1  -3.88251e-019 9.70628e-020 -3.87848e-018
LeftArm  -29.7324 58.309 -75.0511
LeftForeArm  2.96033 -13.6473 -2.99543
LeftHand  -0.6999 -1.87339 11.9882
RightShoulder  8.55656 11.0165 39.4841
RightArm  19.009 -41.7396 14.5541
RightForeArm  -4.2205 20.0727 -9.35847
RightHand  -0.618185 -0.494111 -14.255
LeftUpLeg  -19.3184 2.56368 -0.36858
LeftLeg  40.2602 6.96663 19.5102
LeftFoot  -9.0474 0.0921834 -3.29388
LeftToes  5.30048e-011 -3.04284e-011 -3.73785e-011
20
root  -3.47429 39.3084 104.135 -178.38 9.40344 -177.41
RightUpLeg  -1.58564 -2.1784 5.99271
RightLeg  17.0923 -10.2198 -5.13119
RightFoot  -16.8672 0.153858 3.18864
RightToes  3.97569e-016 -3.18055e-015 -2.98177e-016
Spine  5.19281 -0.140656 9.32803
Spine1  4.60844 0.665347 0.673376
HEad  -9.89236 5.4417 -3.51235
LeftShoulder1  -3.88251e-019 9.70628e-020 -3.87848e-018
LeftArm  -30.9474 59.5598 -75.9414
LeftForeArm  2.59673 -13.366 -2.8833
LeftHand  -0.854232 -3.43987 11.9702
RightShoulder  8.44414 10.9595 39.0768
RightArm  21.1923 -41.3034 16.7048
RightForeArm  -6.17599 20.9429 -10.2842
RightHand  -0.61714 -0.754561 -14.9948
LeftUpLeg  -22.0352 4.69207 -1.93323
LeftLeg  41.4225 6.2401 19.6578
LeftFoot  -8.97913 0.0851868 -3.03977
LeftToes  5.30048e-011 -3.04284e-011 -3.73785e-011
21
root  -3.37349 39.2704 103.529 -178.168 9.68625 -177.945
RightUpLeg  -0.797845 -2.49975 5.33622
RightLeg  16.8411 -9.68096 -5.02497
RightFoot  -17.5528 0.185626 3.44978
RightToes  3.97569e-016 -3.18055e-015 -2.98177e-016
Spine  5.5452 0.203898 9.93443
Spine1  3.93244 1.24555 -0.761439
HEad  -9.59993 5.11797 -3.3128
LeftShoulder1  -3.88251e-019 9.70628e-020 -3.87848e-018
LeftArm  -31.4408 60.6302 -75.8842
LeftForeArm  3.11844 -12.4612 -2.79513
LeftHand  -0.966867 -4.8847 11.5661
RightShoulder  8.44713 10.9582 39.0937
RightArm  24.0672 -40.9067 18.4126
RightForeArm  -8.20036 22.6773 -11.8344
RightHand  -0.726448 0.0677116 -15.0909
LeftUpLeg  -24.3621 6.30249 -3.30233
LeftLeg  40.9901 5.49725 18.731
LeftFoot  -8.62889 0.127156 -3.85569
LeftToes  5.30048e-011 -3.04284e-011 -3.73785e-011
22
root  -3.27751 39.1966 102.851 -177.894 9.96526 -178.284
RightUpLeg  0.0422537 -2.67072 4.88655
RightLeg  16.64 -9.06378 -4.95982
RightFoot  -18.3138 0.229032 3.85243
RightToes  3.97569e-016 -3.18055e-015 -2.98177e-016
Spine  5.64837 0.555228 10.8704
Spine1  3.60927 1.85259 -2.47745
HEad  -9.56535 4.64816 -3.01788
LeftShoulder1  -3.88251e-019 9.70628e-020 -3.87848e-018
LeftArm  -31.3104 61.5857 -75.2538
LeftForeArm  3.57816 -11.6334 -2.79127
LeftHand  -0.957033 -4.62068 11.778
RightShoulder  8.53135 10.9998 39.4022
RightArm  25.6834 -40.1829 19.767
RightForeArm  -8.87177 25.2757 -13.1996
RightHand  -0.79097 0.655805 -14.8684
LeftUpLeg  -26.556 7.47285 -4.2818
LeftLeg  39.4686 4.9538 17.3487
LeftFoot  -8.47095 0.166791 -4.70033
LeftToes  5.30048e-011 -3.04284e-011 -3.73785e-011
23
root  -3.18389 39.1095 102.109 -177.538 10.3518 -178.581
RightUpLeg  0.855294 -2.69654 4.49027
RightLeg  16.4803 -8.55312 -5.02302
RightFoot  -18.8744 0.256846 3.99792
RightToes  3.97569e-016 -3.18055e-015 -2.98177e-016
Spine  5.58158 0.964733 11.4975
Spine1  3.46029 2.41045 -3.90094
HEad  -9.92757 4.21283 -2.88142
LeftShoulder1  -3.88251e-019 9.70628e-020 -3.87848e-018
LeftArm  -31.2595 62.7425 -74.5892
LeftForeArm  3.27651 -11.3618 -2.7213
LeftHand  -0.827405 -3.26901 11.8002
RightShoulder  8.56267 11.0163 39.5141
RightArm  26.693 -39.237 21.3701
RightForeArm  -9.85327 27.9169 -14.5435
RightHand  -0.775593 0.474023 -15.0209
LeftUpLeg  -28.4533 8.66138 -5.08908
LeftLeg  36.7849 4.41571 15.4454
LeftFoot  -8.49638 0.164472 -4.669
LeftToes  5.30048e-011 -3.04284e-011 -3.73785e-011
24
root  -3.10019 39.0295 101.309 -177.301 10.7289 -178.991
RightUpLeg  1.92248 -2.75419 3.89436
RightLeg  16.2045 -8.29017 -5.09619
RightFoot  -19.3947 0.267944 3.82853
RightToes  3.97569e-016 -3.18055e-015 -2.98177e-016
Spine  5.7011 1.3686 11.6337
Spine1  3.22222 2.92012 -5.11628
HEad  -10.4268 3.86209 -2.70093
LeftShoulder1  -3.88251e-019 9.70628e-020 -3.87848e-018
LeftArm  -31.3829 64.0319 -73.8533
LeftForeArm  2.64514 -11.2967 -2.50885
LeftHand  -0.6452 -2.21115 10.5546
RightShoulder  8.53266 10.9998 39.4085
RightArm  27.4478 -38.2677 23.0736
RightForeArm  -10.7683 30.2285 -15.7933
RightHand  -0.824429 0.620517 -15.5784
LeftUpLeg  -29.6911 9.7788 -5.90874
LeftLeg  32.9781 3.59055 13.0089
LeftFoot  -8.38116 0.146998 -4.1189
LeftToes  5.30048e-011 -3.04284e-011 -3.73785e-011
25
root  -3.03263 38.9318 100.442 -177.275 10.8104 -179.448
RightUpLeg  3.36025 -2.96488 3.11675
RightLeg  15.9162 -8.06644 -5.07122
RightFoot  -20.2612 0.344094 4.5146
RightToes  3.97569e-016 -3.18055e-015 -2.98177e-016
Spine  6.06346 1.65152 11.5003
Spine1  2.9081 3.32825 -6.24053
HEad  -10.8106 3.53027 -2.26498
LeftShoulder1  -3.88251e-019 9.70628e-020 -3.87848e-018
LeftArm  -31.1139 65.1892 -72.7865
LeftForeArm  2.39244 -10.9515 -2.33562
LeftHand  -0.488813 -1.55863 8.82193
RightShoulder  8.52661 10.9928 39.3956
RightArm  28.2616 -37.3018 24.3138
RightForeArm  -10.8208 32.2282 -16.9689
RightHand  -0.968192 1.70209 -15.5931
LeftUpLeg  -30.2795 10.1378 -6.59969
LeftLeg  28.7605 2.31159 10.4596
LeftFoot  -8.49981 0.143128 -4.14536
LeftToes  5.30048e-011 -3.04284e-011 -3.73785e-011
26
root  -2.98674 38.7854 99.4806 -177.414 10.5173 -179.808
RightUpLeg  5.01039 -3.37349 2.28595
RightLeg  16.0168 -7.72278 -5.05592
RightFoot  -21.1923 0.511824 6.36801
RightToes  3.97569e-016 -3.18055e-015 -2.98177e-016
Spine  6.455 1.78658 11.2417
Spine1  2.66587 3.55894 -7.00544
HEad  -11.1185 3.13958 -1.76759
LeftShoulder1  -3.88251e-019 9.70628e-020 -3.87848e-018
LeftArm  -30.3086 66.16 -71.572
LeftForeArm  2.80881 -10.3472 -2.35252
LeftHand  -0.403622 -0.960644 8.00938
RightShoulder  8.53365 10.9945 39.4254
RightArm  29.1905 -36.3838 25.0387
RightForeArm  -10.2893 33.8732 -18.0132
RightHand  -1.08609 2.91108 -14.9875
LeftUpLeg  -30.4229 9.41744 -6.99676
LeftLeg  25.1732 0.737869 8.3475
LeftFoot  -8.70765 0.151178 -4.51191
LeftToes  5.30048e-011 -3.04284e-011 -3.73785e-011
27
root  -2.98107 38.6284 98.4106 -177.726 10.1306 179.921
RightUpLeg  6.76618 -4.14208 1.25077
RightLeg  16.7146 -7.10121 -5.1716
RightFoot  -21.4324 0.640956 7.96218
RightToes  3.97569e-016 -3.18055e-015 -2.98177e-016
Spine  6.71062 1.87118 10.913
Spine1  2.73073 3.7496 -7.43281
HEad  -11.5 2.65112 -1.44419
LeftShoulder1  -3.88251e-019 9.70628e-020 -3.87848e-018
LeftArm  -29.5667 66.9091 -70.6273
LeftForeArm  3.77143 -9.5857 -2.43783
LeftHand  -0.376031 -0.577431 7.94732
RightShoulder  8.48874 10.9737 39.2579
RightArm  30.2085 -35.6363 25.4696
RightForeArm  -9.90068 35.0162 -18.7688
RightHand  -1.13334 3.43216 -14.7397
LeftUpLeg  -30.0487 8.17197 -7.28421
LeftLeg  23.0239 -0.427483 7.13392
LeftFoot  -7.50161 0.13401 -3.28448
LeftToes  5.30048e-011 -3.04284e-011 -3.73785e-011
